<mxfile host="app.diagrams.net" modified="2021-03-19T16:24:06.729Z" agent="5.0 (X11)" etag="0C92bjs-sK88ACmqnDAO" version="14.4.4" type="github">
  <diagram id="C5RBs43oDa-KdzZeNtuy" name="Page-1">
    <mxGraphModel dx="1350" dy="804" grid="1" gridSize="10" guides="1" tooltips="1" connect="1" arrows="1" fold="1" page="1" pageScale="1" pageWidth="827" pageHeight="1169" math="0" shadow="0">
      <root>
        <mxCell id="WIyWlLk6GJQsqaUBKTNV-0" />
        <mxCell id="WIyWlLk6GJQsqaUBKTNV-1" parent="WIyWlLk6GJQsqaUBKTNV-0" />
        <mxCell id="8ikK9-_Hsq4ABzX42sM--0" value="monitor" style="rounded=0;whiteSpace=wrap;html=1;" vertex="1" parent="WIyWlLk6GJQsqaUBKTNV-1">
          <mxGeometry x="650" y="515" width="150" height="80" as="geometry" />
        </mxCell>
        <mxCell id="8ikK9-_Hsq4ABzX42sM--1" value="robot" style="rounded=0;whiteSpace=wrap;html=1;" vertex="1" parent="WIyWlLk6GJQsqaUBKTNV-1">
          <mxGeometry x="600" y="30" width="150" height="80" as="geometry" />
        </mxCell>
        <mxCell id="8ikK9-_Hsq4ABzX42sM--2" value="" style="rounded=1;arcSize=19;dashed=1;strokeColor=#000000;fillColor=none;gradientColor=none;dashPattern=8 3 1 3;strokeWidth=2;" vertex="1" parent="WIyWlLk6GJQsqaUBKTNV-1">
          <mxGeometry x="140" y="60" width="260" height="140" as="geometry" />
        </mxCell>
        <mxCell id="8ikK9-_Hsq4ABzX42sM--4" value="Thread Battery" style="text;html=1;strokeColor=none;fillColor=none;align=center;verticalAlign=middle;whiteSpace=wrap;rounded=0;" vertex="1" parent="WIyWlLk6GJQsqaUBKTNV-1">
          <mxGeometry x="220" y="30" width="100" height="20" as="geometry" />
        </mxCell>
        <mxCell id="8ikK9-_Hsq4ABzX42sM--8" value="" style="rounded=1;arcSize=19;dashed=1;strokeColor=#000000;fillColor=none;gradientColor=none;dashPattern=8 3 1 3;strokeWidth=2;" vertex="1" parent="WIyWlLk6GJQsqaUBKTNV-1">
          <mxGeometry x="190" y="395" width="260" height="140" as="geometry" />
        </mxCell>
        <mxCell id="8ikK9-_Hsq4ABzX42sM--9" value="Thread StartRobotWD" style="text;html=1;strokeColor=none;fillColor=none;align=center;verticalAlign=middle;whiteSpace=wrap;rounded=0;" vertex="1" parent="WIyWlLk6GJQsqaUBKTNV-1">
          <mxGeometry x="255" y="360" width="130" height="20" as="geometry" />
        </mxCell>
        <mxCell id="8ikK9-_Hsq4ABzX42sM--10" value="" style="rounded=1;arcSize=19;dashed=1;strokeColor=#000000;fillColor=none;gradientColor=none;dashPattern=8 3 1 3;strokeWidth=2;" vertex="1" parent="WIyWlLk6GJQsqaUBKTNV-1">
          <mxGeometry x="50" y="610" width="260" height="140" as="geometry" />
        </mxCell>
        <mxCell id="8ikK9-_Hsq4ABzX42sM--11" value="Thread ReloadWD" style="text;html=1;strokeColor=none;fillColor=none;align=center;verticalAlign=middle;whiteSpace=wrap;rounded=0;" vertex="1" parent="WIyWlLk6GJQsqaUBKTNV-1">
          <mxGeometry x="115" y="575" width="130" height="20" as="geometry" />
        </mxCell>
        <mxCell id="8ikK9-_Hsq4ABzX42sM--13" value="" style="rounded=1;arcSize=19;dashed=1;strokeColor=#000000;fillColor=none;gradientColor=none;dashPattern=8 3 1 3;strokeWidth=2;" vertex="1" parent="WIyWlLk6GJQsqaUBKTNV-1">
          <mxGeometry x="470" y="655" width="260" height="140" as="geometry" />
        </mxCell>
        <mxCell id="8ikK9-_Hsq4ABzX42sM--14" value="Thread writeRobot" style="text;html=1;strokeColor=none;fillColor=none;align=center;verticalAlign=middle;whiteSpace=wrap;rounded=0;" vertex="1" parent="WIyWlLk6GJQsqaUBKTNV-1">
          <mxGeometry x="550" y="630" width="120" height="20" as="geometry" />
        </mxCell>
      </root>
    </mxGraphModel>
  </diagram>
</mxfile>
